<svg xmlns="http://www.w3.org/2000/svg" width="171.429" height="135.034" viewBox="0 0 171.429 135.034">
  <g id="undraw_order_delivered_re_v4ab" transform="translate(0 0)">
    <path id="Path_58" data-name="Path 58" d="M438.161,418.157c-1.368-7.322.786-15.653,6.773-20.085a34.321,34.321,0,0,0,7.155,22.451c1.922,2.463,4.316,5,4.241,8.126a7.672,7.672,0,0,1-2.482,5.118,22.791,22.791,0,0,1-4.777,3.315l-.262.408C443.867,431.916,439.529,425.479,438.161,418.157Z" transform="translate(-397.004 -344.944)" fill="#f0f0f0"/>
    <path id="Path_59" data-name="Path 59" d="M456.5,397.814a29.335,29.335,0,0,0-1.937,17.945,12.634,12.634,0,0,0,1.338,3.725,7.245,7.245,0,0,0,2.737,2.655,15,15,0,0,1,3.063,1.947,4.436,4.436,0,0,1,1.306,3.385,11.527,11.527,0,0,1-1.277,4.405,11.318,11.318,0,0,0-1.417,4.9c.006.211-.323.208-.328,0-.08-3.035,2.115-5.473,2.6-8.385a4.493,4.493,0,0,0-.907-3.848,11.634,11.634,0,0,0-3.072-2.036,7.732,7.732,0,0,1-2.773-2.5,11.679,11.679,0,0,1-1.476-3.66,28.46,28.46,0,0,1-.645-8.872,29.857,29.857,0,0,1,2.5-9.827c.086-.192.367-.022.282.169Z" transform="translate(-408.462 -344.575)" fill="#fff"/>
    <path id="Path_60" data-name="Path 60" d="M443.177,446.972a4.4,4.4,0,0,1-4.592-3.376c-.048-.206.269-.29.317-.084a4.075,4.075,0,0,0,4.278,3.132C443.391,446.628,443.386,446.956,443.177,446.972Z" transform="translate(-397.593 -377.707)" fill="#fff"/>
    <path id="Path_61" data-name="Path 61" d="M469.577,469.856a8.482,8.482,0,0,0,2.126-5.8c0-.211.324-.208.328,0a8.824,8.824,0,0,1-2.225,6.036c-.141.158-.37-.077-.23-.235Z" transform="translate(-419.97 -392.528)" fill="#fff"/>
    <path id="Path_62" data-name="Path 62" d="M455.9,419.51a2.491,2.491,0,0,0,2.213-.831c.139-.16.367.076.23.235a2.792,2.792,0,0,1-2.446.925.17.17,0,0,1-.162-.166A.165.165,0,0,1,455.9,419.51Z" transform="translate(-409.996 -359.803)" fill="#fff"/>
    <path id="Path_63" data-name="Path 63" d="M497.567,419.929c-.084.1-.167.2-.25.31a32.813,32.813,0,0,0-3,4.394c-.07.118-.139.239-.205.359a34.589,34.589,0,0,0-4.036,12.078,33.592,33.592,0,0,0-.308,5.094c.037,2.353.264,4.9-.457,7.064a5.767,5.767,0,0,1-.259.664l-11.572,3.687-.091-.012-.455.168c-.008-.088-.013-.179-.021-.267,0-.051-.007-.1-.011-.153,0-.034,0-.068-.008-.1,0-.011,0-.023,0-.032,0-.031,0-.06-.008-.088-.034-.51-.066-1.02-.093-1.532,0,0,0,0,0-.006a49.388,49.388,0,0,1,.648-11.659c.022-.115.043-.232.07-.348a32.056,32.056,0,0,1,1.417-5.035,28.348,28.348,0,0,1,1.143-2.63,23.562,23.562,0,0,1,4.277-6,18.71,18.71,0,0,1,12.852-5.959C497.32,419.93,497.442,419.928,497.567,419.929Z" transform="translate(-425.154 -360.745)" fill="#f0f0f0"/>
    <path id="Path_64" data-name="Path 64" d="M498.056,419.642a29.336,29.336,0,0,0-12.35,13.162,12.63,12.63,0,0,0-1.175,3.78,7.246,7.246,0,0,0,.587,3.768,14.991,14.991,0,0,1,1.273,3.4,4.436,4.436,0,0,1-1,3.489,11.528,11.528,0,0,1-3.672,2.749,11.318,11.318,0,0,0-4.08,3.057c-.123.172-.383-.029-.26-.2,1.764-2.471,4.984-3.1,7.127-5.127A4.493,4.493,0,0,0,486.1,444.1a11.635,11.635,0,0,0-1.227-3.476,7.732,7.732,0,0,1-.711-3.663,11.678,11.678,0,0,1,1.025-3.811,28.458,28.458,0,0,1,4.826-7.472,29.86,29.86,0,0,1,7.915-6.339c.185-.1.307.2.123.3Z" transform="translate(-425.622 -360.303)" fill="#fff"/>
    <path id="Path_65" data-name="Path 65" d="M504.945,446.832a4.4,4.4,0,0,1-1.634-5.46c.085-.193.39-.069.3.124a4.075,4.075,0,0,0,1.53,5.076C505.323,446.687,505.121,446.946,504.945,446.832Z" transform="translate(-444.119 -376.177)" fill="#fff"/>
    <path id="Path_66" data-name="Path 66" d="M503.9,484.386a8.483,8.483,0,0,0,5.193-3.355c.123-.172.383.029.26.2a8.824,8.824,0,0,1-5.411,3.48c-.208.042-.249-.284-.042-.326Z" transform="translate(-444.713 -404.868)" fill="#fff"/>
    <path id="Path_67" data-name="Path 67" d="M531.189,434.4a2.491,2.491,0,0,0,2.267.669c.207-.044.248.282.042.326a2.792,2.792,0,0,1-2.51-.735.17.17,0,0,1-.03-.23A.165.165,0,0,1,531.189,434.4Z" transform="translate(-464.351 -371.185)" fill="#fff"/>
    <path id="Path_68" data-name="Path 68" d="M600.524,268.747a3.334,3.334,0,0,1,.076.518l13.568,7.827,3.3-1.9,3.516,4.6-5.511,3.928a2.527,2.527,0,0,1-3.031-.074l-13.99-11.037a3.315,3.315,0,1,1,2.077-3.866Z" transform="translate(-509.934 -249.604)" fill="#ffb6b6"/>
    <path id="Path_69" data-name="Path 69" d="M667.427,288.947a1.42,1.42,0,0,1,.709-.948l6.264-3.413a3.947,3.947,0,0,1,4.772,6.289l-5.02,5.1a1.421,1.421,0,0,1-2.148-.141l-4.322-5.731A1.419,1.419,0,0,1,667.427,288.947Z" transform="translate(-563.006 -262.324)" fill="#3f3d56"/>
    <path id="Path_70" data-name="Path 70" d="M706.908,213.119a9.79,9.79,0,0,1,5.785-6.478c2.835-.971,6.985.508,9.116,2.632,3.9,3.885,4.849,17.23,2.171,21.447-.533-.028-2.371-.049-2.91-.069l-.763-2.542v2.517c-4.208-.13-8.589-.049-12.972.036C706.943,227.677,706.007,215.992,706.908,213.119Z" transform="translate(-591.296 -206.338)" fill="#2f2e41"/>
    <path id="Path_71" data-name="Path 71" d="M398.107,420.95h-3.838l-1.826-14.8h5.665Z" transform="translate(-283.701 -293.607)" fill="#ffb6b6"/>
    <path id="Path_72" data-name="Path 72" d="M510.1,413.586l-3.714.968-5.5-13.865,5.481-1.428Z" transform="translate(-362.091 -288.63)" fill="#ffb6b6"/>
    <path id="Path_73" data-name="Path 73" d="M415.216,126.895l.87,2.261-.174,2.261-17.02,5.9.845-9.9,1.913-2.261Z" transform="translate(-288.363 -90.476)" fill="#ffb6b6"/>
    <circle id="Ellipse_9" data-name="Ellipse 9" cx="6.079" cy="6.079" r="6.079" transform="translate(115.393 3.913)" fill="#ffb7b7"/>
    <path id="Path_74" data-name="Path 74" d="M704.43,210.92a7.635,7.635,0,0,1,11.608,6.664,20.512,20.512,0,0,1-10.587.2l-.855-2.093-.5,2.1a2.572,2.572,0,0,1-3.315,0A7.8,7.8,0,0,1,704.43,210.92Z" transform="translate(-587.135 -208.843)" fill="#2f2e41"/>
    <path id="Path_75" data-name="Path 75" d="M675.038,667.314h-2.723l-.486-2.571-1.245,2.571H663.36a1.624,1.624,0,0,1-.923-2.96l5.768-3.984v-2.6l6.067.362Z" transform="translate(-558.915 -532.683)" fill="#2f2e41"/>
    <path id="Path_76" data-name="Path 76" d="M803.858,658.193l-2.635.687-1.119-2.365-.556,2.8-6.99,1.822a1.624,1.624,0,0,1-1.639-2.631l4.577-5.31-.656-2.516,5.962-1.18Z" transform="translate(-652.017 -526.706)" fill="#2f2e41"/>
    <path id="Path_77" data-name="Path 77" d="M717.668,444.066l-11.25-23.123L702.886,392.8c2.435-4.522-2.087-13.724-2.087-13.724v-3.864l-17.518,3.3h0a84.088,84.088,0,0,0-5.124,30.532l.706,37.41h-.221a1.385,1.385,0,0,0,0,2.771h6.927a1.385,1.385,0,0,0,0-2.771h-.179l4.973-47.592,5.782,23.486,13.974,21.624a1.382,1.382,0,0,0,.111,2.76h6.927a1.384,1.384,0,0,0,.511-2.671Z" transform="translate(-570.134 -328.419)" fill="#2f2e41"/>
    <path id="Path_78" data-name="Path 78" d="M706.863,309.208h0a1.1,1.1,0,0,0-1-.83c-.231-2.64-1.757-19.571-1.815-20.067l0-.021-.442-9.437a1.4,1.4,0,0,0-1.3-1.327l-2.333-.153a.123.123,0,0,1-.119-.123,1.962,1.962,0,0,0-1.962-1.962H690.98a1.837,1.837,0,0,0-1.822,1.608.122.122,0,0,1-.124.11h0a3.282,3.282,0,0,0-3.3,2.722c-.944,5.495-2.837,17.967-1.9,24.9a48.593,48.593,0,0,1,.054,8.063,1.487,1.487,0,0,0,.37,1.078,1.106,1.106,0,0,0-.766,1.332h0a1.108,1.108,0,0,0,1.346.8l21.226-5.351A1.108,1.108,0,0,0,706.863,309.208Z" transform="translate(-574.615 -256.182)" fill="#3f3d56"/>
    <path id="Path_79" data-name="Path 79" d="M468.863,517.963a2.622,2.622,0,0,0-2.2-2.572l-37.633-6.18a2.621,2.621,0,0,0-1.084.048l-8.82,2.28-5.06,1.31-9.339,2.414a2.631,2.631,0,0,0-1.969,2.545v39.434a2.642,2.642,0,0,0,2.081,2.57l38.332-.434a2.549,2.549,0,0,0,.548.057,2.624,2.624,0,0,0,.791-.121l22.774.567a2.618,2.618,0,0,0,1.838-2.528Z" transform="translate(-371.696 -425.262)" fill="#fff"/>
    <path id="Path_80" data-name="Path 80" d="M468.863,517.963a2.622,2.622,0,0,0-2.2-2.572l-37.633-6.18a2.621,2.621,0,0,0-1.084.048l-8.82,2.28-5.06,1.31-9.339,2.414a2.631,2.631,0,0,0-1.969,2.545v39.434a2.642,2.642,0,0,0,2.081,2.57l38.332-.434a2.549,2.549,0,0,0,.548.057,2.624,2.624,0,0,0,.791-.121l22.774.567a2.618,2.618,0,0,0,1.838-2.528Zm-1.779,41.293-22.774.542a2,2,0,0,1-1,.048l-38.334-.674a1.982,1.982,0,0,1-1.56-1.928V517.81a1.974,1.974,0,0,1,1.292-1.851,1.619,1.619,0,0,1,.184-.057l9.88-2.554,5.842-1.512,7.5-1.939a1.882,1.882,0,0,1,.493-.064,1.957,1.957,0,0,1,.32.026l37.633,6.18a1.962,1.962,0,0,1,1.652,1.928l.256,39.391a1.965,1.965,0,0,1-1.378,1.9Z" transform="translate(-371.696 -425.262)" fill="#ccc"/>
    <path id="Path_81" data-name="Path 81" d="M469.984,534.38a.289.289,0,0,1-.083.037l-11.069,2.992-3.446.931-9.8,2.648a.381.381,0,0,1-.086.011.533.533,0,0,1-.059,0l-39.519-7.2-.131-.024a.33.33,0,0,1,.118-.648l.8.145,38.783,7.071,8.447-2.283,4.725-1.277,10.9-2.946.173-.046a.33.33,0,0,1,.383.18.255.255,0,0,1,.02.053A.33.33,0,0,1,469.984,534.38Z" transform="translate(-373.694 -442.566)" fill="#ccc"/>
    <path id="Path_82" data-name="Path 82" d="M549.276,595.68c-.18,0-.327-.145-.329.783l-.329-35.817c0-1.29.144-1.438.326-1.44h0c.18,0,.327.145.329,1.434l.329,35.817c0-.927-.144-.779-.326-.777Z" transform="translate(-477.142 -461.429)" fill="#ccc"/>
    <path id="Path_83" data-name="Path 83" d="M486.429,566.1l-3.539.037-1.453-39.219-37.059-7.374a.855.855,0,0,1-.107-.026,1.306,1.306,0,0,1-.705-.5l5.06-1.31,1.487.3L485.278,525a1.307,1.307,0,0,1,.885.64C486.272,525.828,486.427,565.868,486.429,566.1Z" transform="translate(-401.198 -431.43)" fill="#ccc"/>
    <path id="Path_84" data-name="Path 84" d="M570.577,264.55a1.976,1.976,0,0,0-1.659-1.938l-28.362-4.657a1.978,1.978,0,0,0-.817.036l-6.647,1.719-3.814.987-7.038,1.819a1.983,1.983,0,0,0-1.484,1.918v23.246a1.991,1.991,0,0,0,1.568,1.937l28.889,6.147a1.929,1.929,0,0,0,.413.043,1.977,1.977,0,0,0,.6-.091l17.164-5.42a1.973,1.973,0,0,0,1.385-1.905Z" transform="translate(-456.999 -243.633)" fill="#fff"/>
    <path id="Path_85" data-name="Path 85" d="M544.757,264.184a.245.245,0,0,0-.061.008l-17.5,4.525a.247.247,0,0,0-.185.239V292.2a.248.248,0,0,0,.2.242l28.889,6.147a.249.249,0,0,0,.126-.006l17.164-5.42a.246.246,0,0,0,.173-.238l-.192-23.84a.247.247,0,0,0-.207-.242L544.8,264.187A.268.268,0,0,0,544.757,264.184Z" transform="translate(-461.521 -248.155)" fill="#7440d9"/>
    <path id="Path_86" data-name="Path 86" d="M570.577,264.55a1.976,1.976,0,0,0-1.659-1.938l-28.362-4.657a1.978,1.978,0,0,0-.817.036l-6.647,1.719-3.814.987-7.038,1.819a1.983,1.983,0,0,0-1.484,1.918v23.246a1.991,1.991,0,0,0,1.568,1.937l28.889,6.147a1.929,1.929,0,0,0,.413.043,1.977,1.977,0,0,0,.6-.091l17.164-5.42a1.973,1.973,0,0,0,1.385-1.905Zm-1.341,25.273-17.164,5.42a1.506,1.506,0,0,1-.756.036l-28.891-6.147a1.494,1.494,0,0,1-1.175-1.453V264.435a1.487,1.487,0,0,1,.974-1.4,1.219,1.219,0,0,1,.139-.043l7.446-1.925,4.4-1.139,5.65-1.461a1.415,1.415,0,0,1,.372-.048,1.466,1.466,0,0,1,.241.02l28.362,4.657a1.478,1.478,0,0,1,1.245,1.453l.193,23.84a1.481,1.481,0,0,1-1.039,1.43Z" transform="translate(-456.999 -243.633)" fill="#3f3d56"/>
    <path id="Path_87" data-name="Path 87" d="M571.423,276.922a.214.214,0,0,1-.063.028l-8.342,2.255-2.6.7-7.387,2a.286.286,0,0,1-.064.008l-.045,0-29.784-5.43-.1-.018a.248.248,0,0,1,.089-.489l.6.109,29.229,5.33,6.366-1.72,3.561-.963,8.214-2.221.13-.035a.249.249,0,0,1,.289.135.2.2,0,0,1,.015.04.248.248,0,0,1-.112.276Z" transform="translate(-458.505 -256.674)" fill="#3f3d56"/>
    <path id="Path_88" data-name="Path 88" d="M631.181,323.122a.248.248,0,0,1-.248-.245l-.248-26.994a.248.248,0,0,1,.245-.25h0a.248.248,0,0,1,.248.245l.248,26.994a.248.248,0,0,1-.245.25Z" transform="translate(-536.468 -270.89)" fill="#3f3d56"/>
    <path id="Path_89" data-name="Path 89" d="M583.746,297.228l-2.6.7L580.055,271.3l-27.93-5.557a.628.628,0,0,1-.081-.02.985.985,0,0,1-.532-.375l3.814-.987,1.121.223,26.5,5.272a.985.985,0,0,1,.667.482C583.7,270.477,583.745,297.056,583.746,297.228Z" transform="translate(-479.233 -248.28)" fill="#3f3d56"/>
    <path id="Path_90" data-name="Path 90" d="M649.415,315.3a3.321,3.321,0,0,1,.37.371l15.558-1.817,1.513-3.491,5.568,1.595-2.078,6.441a2.527,2.527,0,0,1-2.477,1.75l-17.813-.506a3.315,3.315,0,1,1-.641-4.342Z" transform="translate(-546.066 -281.539)" fill="#ffb6b6"/>
    <path id="Path_91" data-name="Path 91" d="M719.475,292.637a1.42,1.42,0,0,1,0-1.183l2.989-6.477a3.947,3.947,0,1,1,7.582,2.2l-.984,7.088a1.421,1.421,0,0,1-1.807,1.168l-6.888-2.019A1.42,1.42,0,0,1,719.475,292.637Z" transform="translate(-600.563 -261.127)" fill="#3f3d56"/>
    <path id="Path_92" data-name="Path 92" d="M461.762,691.658H290.992a.33.33,0,0,1,0-.66h170.77a.33.33,0,0,1,0,.66Z" transform="translate(-290.662 -556.703)" fill="#cacaca"/>
    <circle id="Ellipse_10" data-name="Ellipse 10" cx="9.923" cy="9.923" r="9.923" transform="translate(23.359 80.052)" fill="#7440d9"/>
    <path id="Path_93" data-name="Path 93" d="M395.948,522.74a1.1,1.1,0,0,1-.883-.442l-2.707-3.609a1.1,1.1,0,1,1,1.766-1.324l1.771,2.361,4.549-6.823a1.1,1.1,0,1,1,1.837,1.225l-5.414,8.121a1.1,1.1,0,0,1-.888.491Z" transform="translate(-364.019 -427.601)" fill="#fff"/>
    <path id="Path_94" data-name="Path 94" d="M539.761,333.608a.42.42,0,0,1-.092-.01l-8.59-1.94a.416.416,0,1,1,.183-.811l8.59,1.94a.416.416,0,0,1-.091.821Z" transform="translate(-464.228 -296.34)" fill="#fff"/>
    <path id="Path_95" data-name="Path 95" d="M419.674,620.041a.415.415,0,0,1-.092.009l-8.8-.148a.416.416,0,0,1,.014-.831l8.8.148a.416.416,0,0,1,.078.823Z" transform="translate(-377.199 -504.706)" fill="#e6e6e6"/>
    <path id="Path_96" data-name="Path 96" d="M430.674,637.041a.419.419,0,0,1-.092.009l-8.8-.148a.416.416,0,0,1,.014-.831l8.8.148a.416.416,0,0,1,.078.823Z" transform="translate(-385.151 -516.995)" fill="#e6e6e6"/>
  </g>
</svg>
