<svg xmlns="http://www.w3.org/2000/svg" width="148.088" height="142.058" viewBox="0 0 148.088 142.058">
  <g id="undraw_active_support_re_b7sj" transform="translate(0.001 0)">
    <path id="Path_1" data-name="Path 1" d="M592.046,240.933c7.213-5.328,17.368-7.371,25.314-3.214A41.318,41.318,0,0,0,596.8,257.263c-1.659,3.376-3.152,7.3-6.574,8.863a9.236,9.236,0,0,1-6.847,0,27.428,27.428,0,0,1-6.1-3.433l-.58-.07C580.139,254.341,584.833,246.262,592.046,240.933Z" transform="translate(-475.756 -215.102)" fill="#f0f0f0"/>
    <path id="Path_2" data-name="Path 2" d="M617.547,241.889a35.316,35.316,0,0,0-20.455,7.328,15.207,15.207,0,0,0-3.333,3.406,8.722,8.722,0,0,0-1.438,4.36,18.058,18.058,0,0,1-.5,4.341,5.341,5.341,0,0,1-2.981,3.193,13.876,13.876,0,0,1-5.443.931,13.626,13.626,0,0,0-6.049,1.037c-.226.117-.394-.241-.169-.357,3.246-1.681,7.039-.584,10.451-1.584a5.409,5.409,0,0,0,3.692-3,14.007,14.007,0,0,0,.592-4.4,9.307,9.307,0,0,1,1.247-4.315,14.06,14.06,0,0,1,3.189-3.521,34.262,34.262,0,0,1,9.271-5.359,35.943,35.943,0,0,1,11.96-2.45c.254-.008.217.386-.035.394Z" transform="translate(-476.006 -219.095)" fill="#fff"/>
    <path id="Path_3" data-name="Path 3" d="M641.094,246.366a5.3,5.3,0,0,1,1.245-6.747c.2-.16.456.14.258.3a4.906,4.906,0,0,0-1.145,6.279c.128.22-.23.387-.357.169Z" transform="translate(-518.201 -217.814)" fill="#fff"/>
    <path id="Path_4" data-name="Path 4" d="M622.128,284.166a10.212,10.212,0,0,0,7.4-.746c.227-.116.4.241.169.357a10.623,10.623,0,0,1-7.707.761C621.749,284.468,621.884,284.1,622.128,284.166Z" transform="translate(-505.856 -247.019)" fill="#fff"/>
    <path id="Path_5" data-name="Path 5" d="M673.3,245.71a3,3,0,0,0,2.063,1.961c.246.066.111.438-.133.372a3.361,3.361,0,0,1-2.287-2.164.2.2,0,0,1,.094-.263A.2.2,0,0,1,673.3,245.71Z" transform="translate(-539.883 -221.829)" fill="#fff"/>
    <path id="Path_6" data-name="Path 6" d="M622.669,305.863c-.155-.037-.31-.074-.467-.109a39.494,39.494,0,0,0-6.337-.944c-.165-.014-.332-.025-.5-.034a41.64,41.64,0,0,0-15.2,1.973,40.442,40.442,0,0,0-5.68,2.342c-2.529,1.276-5.169,2.86-7.892,3.216a6.938,6.938,0,0,1-.856.068l-10.072-10.6c-.011-.036-.024-.069-.035-.1l-.422-.4.278-.163c.053-.032.108-.061.16-.093.036-.02.072-.041.1-.061l.033-.018c.031-.02.062-.036.091-.054q.8-.457,1.611-.905s0,0,.007,0a59.456,59.456,0,0,1,12.969-5.423c.136-.037.273-.076.413-.107a38.579,38.579,0,0,1,6.2-1.109,34.121,34.121,0,0,1,3.449-.143,28.367,28.367,0,0,1,8.744,1.482c5.619,1.894,10.571,5.564,13.205,10.791C622.539,305.6,622.6,305.727,622.669,305.863Z" transform="translate(-474.764 -253.544)" fill="#f0f0f0"/>
    <path id="Path_7" data-name="Path 7" d="M623,317.791a35.316,35.316,0,0,0-20.745-6.464,15.207,15.207,0,0,0-4.711.713,8.723,8.723,0,0,0-3.773,2.615,18.055,18.055,0,0,1-3.013,3.165,5.341,5.341,0,0,1-4.3.755,13.877,13.877,0,0,1-4.906-2.534,13.626,13.626,0,0,0-5.454-2.814c-.251-.043-.17-.43.081-.387,3.6.612,5.972,3.772,9.3,5.027a5.409,5.409,0,0,0,4.757-.176,14.01,14.01,0,0,0,3.12-3.155,9.308,9.308,0,0,1,3.594-2.694,14.061,14.061,0,0,1,4.667-.891,34.264,34.264,0,0,1,10.629,1.3,35.942,35.942,0,0,1,11.024,5.244C623.474,317.644,623.208,317.936,623,317.791Z" transform="translate(-475.255 -265.367)" fill="#fff"/>
    <path id="Path_8" data-name="Path 8" d="M661.982,302.357a5.3,5.3,0,0,1,5.056-4.638.2.2,0,0,1,.025.395,4.906,4.906,0,0,0-4.694,4.324C662.338,302.69,661.952,302.608,661.982,302.357Z" transform="translate(-532.59 -256.564)" fill="#fff"/>
    <path id="Path_9" data-name="Path 9" d="M629.885,320.083a10.212,10.212,0,0,0,6.362,3.863c.251.044.17.43-.08.387a10.622,10.622,0,0,1-6.612-4.033c-.154-.2.177-.419.331-.217Z" transform="translate(-510.954 -271.413)" fill="#fff"/>
    <path id="Path_10" data-name="Path 10" d="M694.485,318.963a3,3,0,0,0,.466,2.807c.157.2-.175.416-.331.217a3.361,3.361,0,0,1-.523-3.1.2.2,0,0,1,.234-.153A.2.2,0,0,1,694.485,318.963Z" transform="translate(-553.88 -270.563)" fill="#fff"/>
    <path id="Path_11" data-name="Path 11" d="M475.493,208.1h-.781V186.721a12.376,12.376,0,0,0-12.376-12.376h-45.3a12.376,12.376,0,0,0-12.376,12.376V304.027A12.376,12.376,0,0,0,417.035,316.4h45.3a12.376,12.376,0,0,0,12.376-12.376v-80.7h.781Z" transform="translate(-361.106 -174.345)" fill="#3f3d56"/>
    <path id="Path_12" data-name="Path 12" d="M469.659,184h-5.913a4.391,4.391,0,0,1-4.065,6.049H433.727A4.391,4.391,0,0,1,429.662,184h-5.523a9.242,9.242,0,0,0-9.242,9.242V310.374a9.242,9.242,0,0,0,9.242,9.242h45.52a9.242,9.242,0,0,0,9.242-9.242h0V193.239A9.242,9.242,0,0,0,469.659,184Z" transform="translate(-367.928 -180.777)" fill="#fff"/>
    <path id="Path_13" data-name="Path 13" d="M462.473,375.79a25.522,25.522,0,1,1,25.175-21.352,25.495,25.495,0,0,1-25.175,21.352Zm0-50.037a24.248,24.248,0,0,0-11.134,2.671,24.537,24.537,0,1,0,11.134-2.671Z" transform="translate(-382.628 -274.58)" fill="#f0f0f0"/>
    <path id="Path_14" data-name="Path 14" d="M336.721,333.277a4.829,4.829,0,0,1,4.011,6.224l8.479,7.062-3.035,6.2-11.833-10.142a4.855,4.855,0,0,1,2.379-9.344Z" transform="translate(-312.171 -280.233)" fill="#ffb6b6"/>
    <path id="Path_15" data-name="Path 15" d="M426.28,377.962a25.42,25.42,0,0,0-1.47-6.329c-1.834-4.8-13.682-8.744-15.273-9.253l-.4-4.487-16.462-1.771-2.088,5.738-5.9,2.215a2.9,2.9,0,0,0-1.728,1.771h0l-5.3,1.531-5.227,1.511-18.16-12.8-.857.56-5.731,3.739-.884.577,23.5,21.2,8.73-2.048,6.565-1.544.56,2.275-1.451,7.993a25.011,25.011,0,0,0,32.344,2.585l3.729-3.309a24.982,24.982,0,0,0,5.607-9.851Z" transform="translate(-322.544 -295.465)" fill="#e4e4e4"/>
    <circle id="Ellipse_8" data-name="Ellipse 8" cx="11.853" cy="11.853" r="11.853" transform="translate(64.828 38.209) rotate(-18.319)" fill="#ffb6b6"/>
    <path id="Path_16" data-name="Path 16" d="M480.572,264.185a8,8,0,0,1,4.844-3.227,7.638,7.638,0,0,1,5.633,1.033,11.534,11.534,0,0,1,5.706-.972,6.084,6.084,0,0,1,4.706,3.1,8.47,8.47,0,0,0,.68,1.321c.785,1.048,2.245,1.184,3.534,1.234l-1.955,1.14,1.949.908-2.652,1.013c2.058,1.809,2.555,5.028,1.776,7.727a15.4,15.4,0,0,1-4.317,6.548,9.838,9.838,0,0,1,.307-4.286c.285-1.5.331-3.261-.722-4.322a4.906,4.906,0,0,0-2.733-1.106,132.667,132.667,0,0,0-14.973-1.778,4.236,4.236,0,0,0-2,.2c-1.222.543-1.713,2.034-2.067,3.356a26.612,26.612,0,0,1,.4-6.939A12.712,12.712,0,0,1,480.572,264.185Z" transform="translate(-410.128 -231.961)" fill="#2f2e41"/>
    <path id="Path_17" data-name="Path 17" d="M499.8,506.464h-14.01a1.835,1.835,0,1,1,0-3.669H499.8a1.835,1.835,0,1,1,0,3.669Z" transform="translate(-413.95 -393.231)" fill="#7440d9"/>
    <path id="Path_18" data-name="Path 18" d="M313.97,214.115H275.433a1.34,1.34,0,0,1,0-2.681H313.97a1.34,1.34,0,0,1,0,2.681Z" transform="translate(-274.094 -199.061)" fill="#7440d9"/>
    <path id="Path_19" data-name="Path 19" d="M336.22,239.778H275.433a1.34,1.34,0,0,1,0-2.681H336.22a1.34,1.34,0,1,1,0,2.681Z" transform="translate(-274.094 -216.164)" fill="#7440d9"/>
    <path id="Path_20" data-name="Path 20" d="M324.539,263.955H275.434a1.34,1.34,0,1,1,0-2.681h49.105a1.34,1.34,0,1,1,0,2.681Z" transform="translate(-274.095 -232.276)" fill="#cacaca"/>
    <path id="Path_21" data-name="Path 21" d="M303.124,288.044h-27.69a1.34,1.34,0,1,1,0-2.681h27.69a1.34,1.34,0,0,1,0,2.681Z" transform="translate(-274.095 -248.33)" fill="#cacaca"/>
    <path id="Path_22" data-name="Path 22" d="M318.42,312.13H275.433a1.34,1.34,0,1,1,0-2.681H318.42a1.34,1.34,0,0,1,0,2.681Z" transform="translate(-274.094 -264.381)" fill="#cacaca"/>
  </g>
</svg>
