<svg xmlns="http://www.w3.org/2000/svg" width="108.806" height="131.082" viewBox="0 0 108.806 131.082">
  <g id="undraw_certificate_re_yadi" transform="translate(0.003 0)">
    <path id="Path_97" data-name="Path 97" d="M306.706,400.812a5.323,5.323,0,0,0,8.061,1.281l16.409,9.411-.611-9.811-15.489-7.433a5.352,5.352,0,0,0-8.37,6.552Z" transform="translate(-305.93 -338.117)" fill="#ffb8b8"/>
    <path id="Path_98" data-name="Path 98" d="M542.026,624.216c-4.867,6.813-4.693,18.211-3.335,30.685H561.7l1-2.335,1.334,2.335h21.68s-1.668-31.686-4.67-32.687S542.026,624.216,542.026,624.216Z" transform="translate(-493.744 -523.82)" fill="#2f2e41"/>
    <circle id="Ellipse_11" data-name="Ellipse 11" cx="11.674" cy="11.674" r="11.674" transform="translate(56.287 5.87)" fill="#ffb8b8"/>
    <path id="Path_99" data-name="Path 99" d="M540.458,275.368l2.283,4.375,15.79,7.039-4.15,40.166-1.747,4.159.944,3.612-2.275,2.666c2.284,2.067,2.574,4.23,1.332,6.468l-7.271,1.666s-40.43,3.6-37.023-2.668c3.723-6.844,4.671-27.055-3.548-37.855-6.977-9.169-1.621-21.067-1.621-21.067l16.551-4.946,6.088-3.615Z" transform="translate(-464.06 -243.121)" fill="#3f3d56"/>
    <path id="Path_100" data-name="Path 100" d="M612.027,106.308a.644.644,0,0,1,.62-.368c-5.344-.32-10.974.3-15.445,3.248a23.3,23.3,0,0,1-3.283,2.082.354.354,0,0,0-.072.6l.129.1a.355.355,0,0,1-.115.619h0a.355.355,0,0,0-.089.638l.992.641a.353.353,0,0,1,0,.595,1.758,1.758,0,0,1-.264.134.354.354,0,0,0-.112.595,3.527,3.527,0,0,1,.96,1.4,9.038,9.038,0,0,1,.446,2.716,3.355,3.355,0,0,1,3.157-2.187,13.89,13.89,0,0,1,4.033.7,22.31,22.31,0,0,0,8.855.341c-1,2.007-.156,4.4.692,6.476l2.748-1.178c3.774-2.13,1.145,6.88-.266,8.118,2.88,1,10.42-10.085,7.994-14.29-1.262-2.187-.366-5.008-2.846-7.082-1.216-1.28-3.643-.711-4.882-1.775-.488-.419.256-1.539-.414-1.783A19.536,19.536,0,0,0,612.027,106.308Z" transform="translate(-538.883 -105.865)" fill="#2f2e41"/>
    <path id="Path_101" data-name="Path 101" d="M414.855,300.308c-2.142,9.51-7.636,31.715-13.21,36.358a3.252,3.252,0,0,1-1.24.732c-19.593,4.773-25.871-7.4-25.871-7.4s5.251-2.559,5.384-7.56l10.589,3.285,9.23-20.772,1.358-1.267.008-.008Z" transform="translate(-361.485 -263.317)" fill="#3f3d56"/>
    <path id="Path_102" data-name="Path 102" d="M767.4,650.227a5.323,5.323,0,0,0-.559-8.143l5.493-18.1-9.424,2.8-3.771,16.761a5.352,5.352,0,0,0,8.262,6.688Z" transform="translate(-672.255 -525.416)" fill="#ffb8b8"/>
    <path id="Path_103" data-name="Path 103" d="M768.292,330.044l4.353,1.013s17.993,35.009,13.658,41.68-9.648,28.756-9.648,28.756-7.857-1.562-10.858-5.564l5.5-26.193-5.67-22.013Z" transform="translate(-678.175 -287.396)" fill="#3f3d56"/>
    <path id="Path_104" data-name="Path 104" d="M345.51,345.044l.156-56.385a4.309,4.309,0,0,1,4.316-4.293l42.583.118a4.309,4.309,0,0,1,4.293,4.316l-.156,56.385a4.309,4.309,0,0,1-4.316,4.293l-42.583-.118A4.309,4.309,0,0,1,345.51,345.044Z" transform="translate(-337.983 -250.409)" fill="#e6e6e6"/>
    <path id="Path_105" data-name="Path 105" d="M362.928,342.437l.1-36.249a4.036,4.036,0,0,1,4.042-4.02l36.6.1a4.036,4.036,0,0,1,4.02,4.042l-.139,50.175a4.036,4.036,0,0,1-4.043,4.02l-22.671-.063A17.977,17.977,0,0,1,362.928,342.437Z" transform="translate(-352.087 -264.824)" fill="#fff"/>
    <path id="Path_106" data-name="Path 106" d="M426.282,371.292H397.746a1.712,1.712,0,0,1,0-3.424h28.536a1.712,1.712,0,0,1,0,3.424Z" transform="translate(-378.895 -318.025)" fill="#7440d9"/>
    <path id="Path_107" data-name="Path 107" d="M404.024,329.792h-6.278a1.712,1.712,0,1,1,0-3.424h6.278a1.712,1.712,0,1,1,0,3.424Z" transform="translate(-378.895 -284.42)" fill="#7440d9"/>
    <path id="Path_108" data-name="Path 108" d="M426.282,412.792H397.746a1.712,1.712,0,0,1,0-3.424h28.536a1.712,1.712,0,0,1,0,3.424Z" transform="translate(-378.895 -351.63)" fill="#7440d9"/>
    <path id="Path_109" data-name="Path 109" d="M426.282,454.292H397.746a1.712,1.712,0,0,1,0-3.424h28.536a1.712,1.712,0,0,1,0,3.424Z" transform="translate(-378.895 -385.235)" fill="#7440d9"/>
    <circle id="Ellipse_12" data-name="Ellipse 12" cx="6.813" cy="6.813" r="6.813" transform="translate(38.265 76.235)" fill="#7440d9"/>
    <path id="Path_110" data-name="Path 110" d="M526.875,530.86a.758.758,0,0,1-.606-.3l-1.859-2.478a.758.758,0,1,1,1.213-.909l1.216,1.621,3.123-4.684a.758.758,0,1,1,1.261.841l-3.717,5.576a.758.758,0,0,1-.61.337Z" transform="translate(-482.727 -444.267)" fill="#fff"/>
    <circle id="Ellipse_13" data-name="Ellipse 13" cx="3.234" cy="3.234" r="3.234" transform="translate(27.317 14.364)" fill="#f2f2f2"/>
    <circle id="Ellipse_14" data-name="Ellipse 14" cx="3.234" cy="3.234" r="3.234" transform="translate(15.522 107.39)" fill="#f2f2f2"/>
    <circle id="Ellipse_15" data-name="Ellipse 15" cx="3.234" cy="3.234" r="3.234" transform="translate(89.905 26.919)" fill="#f2f2f2"/>
  </g>
</svg>
