<svg id="undraw_credit_card_re_blml" xmlns="http://www.w3.org/2000/svg" width="137.917" height="125.793" viewBox="0 0 137.917 125.793">
  <rect id="Rectangle_5" data-name="Rectangle 5" width="120.368" height="10.943" transform="translate(3.295 45.236) rotate(-16.244)" fill="#3f3d56"/>
  <path id="Path_35" data-name="Path 35" d="M333.174,284.982l-17.033-58.461a1.7,1.7,0,0,1,1.158-2.11l112.761-32.854a1.7,1.7,0,0,1,2.11,1.158l15.09,51.792-.467.136L431.7,192.851a1.218,1.218,0,0,0-1.507-.827L317.435,224.878a1.216,1.216,0,0,0-.827,1.507l17.033,58.461Z" transform="translate(-316.073 -191.489)" fill="#3f3d56"/>
  <path id="Path_36" data-name="Path 36" d="M739.12,361.261a1.583,1.583,0,0,1-1.518-1.139l-2.857-9.805a1.583,1.583,0,0,1,1.075-1.96l9.805-2.857a1.582,1.582,0,0,1,1.96,1.076l2.857,9.805a1.582,1.582,0,0,1-1.075,1.96l-9.805,2.857a1.576,1.576,0,0,1-.442.063Z" transform="translate(-632.889 -308.002)" fill="#7440d9"/>
  <path id="Path_37" data-name="Path 37" d="M367.513,329.753a2.846,2.846,0,0,0-.1-.3,2.918,2.918,0,0,0-5.571,1.622,2.77,2.77,0,0,0,.071.306,2.923,2.923,0,0,0,2.8,2.1,2.858,2.858,0,0,0,.815-.117A2.921,2.921,0,0,0,367.513,329.753ZM365.39,332.9a2.435,2.435,0,0,1-3.015-1.654,2.782,2.782,0,0,1-.068-.306,2.431,2.431,0,0,1,4.63-1.347,2.029,2.029,0,0,1,.109.294A2.433,2.433,0,0,1,365.39,332.9Z" transform="translate(-350.674 -294.539)" fill="#7440d9"/>
  <path id="Path_38" data-name="Path 38" d="M350.339,335.735a2.675,2.675,0,0,1,1.023-2.932,2.675,2.675,0,1,0,1.415,4.855A2.675,2.675,0,0,1,350.339,335.735Z" transform="translate(-340.658 -298.438)" fill="#7440d9"/>
  <path id="Path_39" data-name="Path 39" d="M605.451,391.082a1.469,1.469,0,0,0-1.812-1.021L587.5,394.576l-1.739.486h10.918l1.739-.486,6.018-1.683A1.471,1.471,0,0,0,605.451,391.082Z" transform="translate(-520.178 -341.733)" fill="#ccc"/>
  <path id="Path_40" data-name="Path 40" d="M535.4,377.218a1.47,1.47,0,0,0-1.812-1.019l-24.224,6.775a1.476,1.476,0,0,0-1.063,1.6h6.271l1.741-.486,18.067-5.053A1.472,1.472,0,0,0,535.4,377.218Z" transform="translate(-461.551 -331.242)" fill="#ccc"/>
  <path id="Path_41" data-name="Path 41" d="M505.393,408.8H387.943a1.7,1.7,0,0,0-1.7,1.7v69.546a1.7,1.7,0,0,0,1.7,1.7h117.45a1.7,1.7,0,0,0,1.7-1.7V410.5A1.7,1.7,0,0,0,505.393,408.8Zm1.216,71.248a1.216,1.216,0,0,1-1.216,1.216H387.943a1.216,1.216,0,0,1-1.216-1.216V410.5a1.216,1.216,0,0,1,1.216-1.216h117.45a1.216,1.216,0,0,1,1.216,1.216Z" transform="translate(-369.178 -355.955)" fill="#3f3d56"/>
  <path id="Path_42" data-name="Path 42" d="M431.155,429.636a2.918,2.918,0,1,1,2.918-2.918A2.918,2.918,0,0,1,431.155,429.636Zm0-5.35a2.432,2.432,0,1,0,2.432,2.432A2.432,2.432,0,0,0,431.155,424.286Z" transform="translate(-400.962 -367.309)" fill="#7440d9"/>
  <path id="Path_43" data-name="Path 43" d="M416.154,427.475a2.675,2.675,0,0,1,1.8-2.528,2.675,2.675,0,1,0,0,5.057A2.675,2.675,0,0,1,416.154,427.475Z" transform="translate(-390.497 -368.066)" fill="#7440d9"/>
  <path id="Path_44" data-name="Path 44" d="M482.07,543.52a2.191,2.191,0,0,1-2.189-2.188v-6.566a2.189,2.189,0,0,1,4.377,0v6.566a2.191,2.191,0,0,1-2.188,2.189Z" transform="translate(-440.048 -449.636)" fill="#7440d9"/>
  <path id="Path_45" data-name="Path 45" d="M506.069,543.52a2.191,2.191,0,0,1-2.189-2.188v-6.566a2.189,2.189,0,0,1,4.377,0v6.566a2.191,2.191,0,0,1-2.188,2.189Z" transform="translate(-458.212 -449.636)" fill="#7440d9"/>
  <path id="Path_46" data-name="Path 46" d="M530.069,543.52a2.191,2.191,0,0,1-2.188-2.188v-6.566a2.188,2.188,0,1,1,4.377,0v6.566a2.191,2.191,0,0,1-2.189,2.189Z" transform="translate(-476.376 -449.636)" fill="#7440d9"/>
  <path id="Path_47" data-name="Path 47" d="M567.069,543.52a2.191,2.191,0,0,1-2.188-2.188v-6.566a2.189,2.189,0,0,1,4.377,0v6.566a2.191,2.191,0,0,1-2.188,2.189Z" transform="translate(-504.379 -449.636)" fill="#7440d9"/>
  <path id="Path_48" data-name="Path 48" d="M591.069,543.52a2.191,2.191,0,0,1-2.189-2.188v-6.566a2.189,2.189,0,0,1,4.377,0v6.566a2.191,2.191,0,0,1-2.189,2.189Z" transform="translate(-522.543 -449.636)" fill="#7440d9"/>
  <path id="Path_49" data-name="Path 49" d="M615.07,543.52a2.191,2.191,0,0,1-2.189-2.188v-6.566a2.188,2.188,0,1,1,4.377,0v6.566a2.191,2.191,0,0,1-2.188,2.189Z" transform="translate(-540.707 -449.636)" fill="#7440d9"/>
  <path id="Path_50" data-name="Path 50" d="M652.069,543.52a2.191,2.191,0,0,1-2.188-2.188v-6.566a2.188,2.188,0,0,1,4.377,0v6.566a2.191,2.191,0,0,1-2.188,2.189Z" transform="translate(-568.709 -449.636)" fill="#7440d9"/>
  <path id="Path_51" data-name="Path 51" d="M676.07,543.52a2.191,2.191,0,0,1-2.189-2.188v-6.566a2.189,2.189,0,0,1,4.377,0v6.566a2.191,2.191,0,0,1-2.189,2.189Z" transform="translate(-586.873 -449.636)" fill="#7440d9"/>
  <path id="Path_52" data-name="Path 52" d="M700.069,543.52a2.191,2.191,0,0,1-2.189-2.188v-6.566a2.189,2.189,0,0,1,4.377,0v6.566a2.191,2.191,0,0,1-2.188,2.189Z" transform="translate(-605.037 -449.636)" fill="#7440d9"/>
  <path id="Path_53" data-name="Path 53" d="M737.069,543.52a2.191,2.191,0,0,1-2.189-2.188v-6.566a2.189,2.189,0,0,1,4.377,0v6.566a2.191,2.191,0,0,1-2.188,2.189Z" transform="translate(-633.04 -449.636)" fill="#7440d9"/>
  <path id="Path_54" data-name="Path 54" d="M761.07,543.52a2.191,2.191,0,0,1-2.189-2.188v-6.566a2.189,2.189,0,0,1,4.377,0v6.566a2.191,2.191,0,0,1-2.188,2.189Z" transform="translate(-651.204 -449.636)" fill="#7440d9"/>
  <path id="Path_55" data-name="Path 55" d="M785.069,543.52a2.191,2.191,0,0,1-2.188-2.188v-6.566a2.189,2.189,0,0,1,4.377,0v6.566a2.191,2.191,0,0,1-2.189,2.189Z" transform="translate(-669.368 -449.636)" fill="#7440d9"/>
  <rect id="Rectangle_6" data-name="Rectangle 6" width="119.882" height="0.486" transform="translate(17.462 67.379)" fill="#3f3d56"/>
</svg>
